<svg xmlns="http://www.w3.org/2000/svg" width="1278" height="286" viewBox="0 0 1278 286">
  <g fill="none" fill-rule="evenodd">
    <text fill="#5B5B5B" font-family="LFTEticaBk, LFT Etica" font-size="22" font-weight="300">
      <tspan x="1099.685" y="197">Fastnets-</tspan> <tspan x="1074" y="217.9">abonnementer</tspan>
    </text>
    <circle cx="1144" cy="125" r="32" stroke="#5B5B5B" stroke-width="2"/>
    <text fill="#5B5B5B" font-family="LFTEticaBk, LFT Etica" font-size="22" font-weight="300">
      <tspan x="907.326" y="198">Mobilit</tspan> <tspan x="900" y="218.9">brebånd</tspan>
    </text>
    <circle cx="940" cy="125" r="32" stroke="#5B5B5B" stroke-width="2"/>
    <text fill="#5B5B5B" font-family="LFTEticaBk, LFT Etica" font-size="22" font-weight="300">
      <tspan x="666" y="202">Mobiltelefoner</tspan>
    </text>
    <circle cx="736" cy="125" r="32" stroke="#5B5B5B" stroke-width="2"/>
    <text fill="#5B5B5B" font-family="LFTEticaBk, LFT Etica" font-size="22" font-weight="300">
      <tspan x="501.05" y="198">Mobil-</tspan> <tspan x="462" y="218.9">abonnementer</tspan>
    </text>
    <circle cx="531" cy="125" r="32" stroke="#5B5B5B" stroke-width="2"/>
    <text fill="#5B5B5B" font-family="LFTEticaBk, LFT Etica" font-size="22" font-weight="300">
      <tspan x="280" y="202">Bredbånd</tspan>
    </text>
    <circle cx="327" cy="125" r="32" stroke="#5B5B5B" stroke-width="2"/>
    <text fill="#5B5B5B" font-family="LFTEticaBk, LFT Etica" font-size="22" font-weight="300">
      <tspan x="112" y="202">Tv</tspan>
    </text>
    <circle cx="123" cy="125" r="32" stroke="#5B5B5B" stroke-width="2"/>
    <rect width="1276" height="263" x="1" y="22" stroke="#D8D8D8" stroke-width="2" rx="18"/>
    <rect width="213" height="44" x="525" fill="#FFF"/>
    <text fill="#37C346" font-family="LFTEticaSB, LFT Etica" font-size="28" font-weight="500">
      <tspan x="537.932" y="35.12">Our products</tspan>
    </text>
    <g transform="translate(313 114)">
      <path fill="#5B5B5B" d="M14.5,22 C13.118854,22 12,20.881146 12,19.5 C12,18.118854 13.118854,17 14.5,17 C15.881146,17 17,18.118854 17,19.5 C17,20.881146 15.881146,22 14.5,22"/>
      <path stroke="#5B5B5B" stroke-linecap="round" stroke-linejoin="round" stroke-width="2" d="M4 11C6.53280451 7.94059201 10.2998997 6 14.5065227 6 18.7061213 6 22.468199 7.93438212 25 10.9855102M0 6C3.61601487 2.30798419 8.77447673 0 14.5 0 20.2255233 0 25.3839851 2.30798419 29 6M20 15C18.5943389 13.1736486 16.4310303 12 14.0004894 12 11.5689697 12 9.40566115 13.1736486 8 15"/>
    </g>
    <g stroke="#5B5B5B" stroke-width="1.7" transform="translate(522 108)">
      <path d="M3.67752,27.2013077 L3.67752,17.5263846 C3.67752,16.5956154 4.43352,15.8340769 5.35752,15.8340769 L14.96208,15.8340769 C15.88608,15.8340769 16.64208,16.5956154 16.64208,17.5263846 L16.64208,27.2013077 C16.64208,28.1320769 15.88608,28.8936154 14.96208,28.8936154 L5.35752,28.8936154 C4.43352,28.8936154 3.67752,28.1320769 3.67752,27.2013077 Z"/>
      <path d="M.000084 30.9437615L.000084 1.69222308C.000084.761453846.756084-.0000846153846 1.680084-.0000846153846L9.729804-.0000846153846C10.495884-.0000846153846 11.234244.290992308 11.796204.8173L19.834164 8.32099231C20.438964 8.88537692 20.781684 9.67822308 20.781684 10.5091462L20.781684 30.9437615C20.781684 31.8745308 20.025684 32.6360692 19.101684 32.6360692L1.680084 32.6360692C.756084 32.6360692.000084 31.8745308.000084 30.9437615zM3.67752 20.3874846L16.64208 20.3874846M11.495064 20.3874846L11.495064 28.8938692M11.853156 24.6405923L16.641996 24.6405923"/>
    </g>
    <g transform="translate(726 109)">
      <path stroke="#5B5B5B" stroke-width="1.7" d="M0.00042,32.004285 L0.00042,1.700085 C0.00042,0.765085 0.75558,8.5e-05 1.68042,8.5e-05 L19.10202,8.5e-05 C20.02602,8.5e-05 20.78202,0.765085 20.78202,1.700085 L20.78202,32.004285 C20.78202,32.939285 20.02602,33.704285 19.10202,33.704285 L1.68042,33.704285 C0.75558,33.704285 0.00042,32.939285 0.00042,32.004285 Z"/>
      <path fill="#AA2121" d="M12.561024,28.55031 C12.561024,29.76326 11.589984,30.74586 10.391304,30.74586 C9.192624,30.74586 8.220744,29.76326 8.220744,28.55031 C8.220744,27.33736 9.192624,26.35391 10.391304,26.35391 C11.589984,26.35391 12.561024,27.33736 12.561024,28.55031"/>
      <path stroke="#5B5B5B" stroke-width="1.7" d="M0.00042,32.004285 L0.00042,1.700085 C0.00042,0.765085 0.75558,8.5e-05 1.68042,8.5e-05 L19.10202,8.5e-05 C20.02602,8.5e-05 20.78202,0.765085 20.78202,1.700085 L20.78202,32.004285 C20.78202,32.939285 20.02602,33.704285 19.10202,33.704285 L1.68042,33.704285 C0.75558,33.704285 0.00042,32.939285 0.00042,32.004285 Z"/>
      <path fill="#5B5B5B" d="M12.561024,28.55031 C12.561024,29.76326 11.589984,30.74586 10.391304,30.74586 C9.192624,30.74586 8.220744,29.76326 8.220744,28.55031 C8.220744,27.33736 9.192624,26.35391 10.391304,26.35391 C11.589984,26.35391 12.561024,27.33736 12.561024,28.55031"/>
    </g>
    <g transform="translate(928 112)">
      <path fill="#5B5B5B" d="M14.0560286,9.7232 C14.0560286,10.9248842 13.0651714,11.8983579 11.8420286,11.8983579 C10.6188857,11.8983579 9.62802857,10.9248842 9.62802857,9.7232 C9.62802857,8.52151579 10.6188857,7.5472 11.8420286,7.5472 C13.0651714,7.5472 14.0560286,8.52151579 14.0560286,9.7232"/>
      <path stroke="#5B5B5B" stroke-linecap="round" stroke-linejoin="round" stroke-width="1.7" d="M11.8420286 31.5858526L11.8420286 15.3753263M7.66011429 4.56117895C6.11468571 5.77128421 5.12211429 7.63149474 5.12211429 9.72328421 5.12211429 11.8142316 6.11468571 13.6752842 7.66011429 14.8853895M16.0239429 14.8852211C17.5685143 13.6751158 18.5610857 11.8149053 18.5610857 9.72311579 18.5610857 7.63216842 17.5685143 5.77111579 16.0239429 4.56101053"/>
      <path stroke="#5B5B5B" stroke-linecap="round" stroke-linejoin="round" stroke-width="1.7" d="M5.35071429.000336842105C2.12871429 2.07781053.000428571429 5.65338947.000428571429 9.72328421.000428571429 13.7923368 2.12871429 17.3687579 5.35071429 19.4462316M18.3334286 19.4460632C21.5554286 17.3685895 23.6837143 13.7921684 23.6837143 9.72311579 23.6837143 5.65322105 21.5554286 2.07764211 18.3334286.000168421053"/>
    </g>
    <g stroke="#5B5B5B" stroke-width="1.7" transform="translate(1126 108)">
      <path d="M35.3698286,17.6847429 C35.3698286,27.4518857 27.4524,35.3693143 17.6844,35.3693143 C7.91811429,35.3693143 -0.000171428571,27.4518857 -0.000171428571,17.6847429 C-0.000171428571,7.9176 7.91811429,0.000171428571 17.6844,0.000171428571 C27.4524,0.000171428571 35.3698286,7.9176 35.3698286,17.6847429 Z"/>
      <path stroke-linecap="round" stroke-linejoin="round" d="M11.3698286 15.5904857L11.3698286 24.6633429M23.9951143 15.5904857L23.9951143 24.6633429M22.2188571 10.5430286L13.146 10.5430286"/>
    </g>
    <g stroke="#5B5B5B" stroke-width="1.7" transform="translate(103 115)">
      <path d="M37.6049362,21.4835484 L1.70195745,21.4835484 C0.765787234,21.4835484 -0.000170212766,20.7287097 -0.000170212766,19.806129 L-0.000170212766,1.67741935 C-0.000170212766,0.75483871 0.765787234,-3.55271368e-15 1.70195745,-3.55271368e-15 L37.6049362,-3.55271368e-15 C38.5411064,-3.55271368e-15 39.3070638,0.75483871 39.3070638,1.67741935 L39.3070638,19.806129 C39.3070638,20.7287097 38.5411064,21.4835484 37.6049362,21.4835484 Z"/>
      <path stroke-linecap="round" stroke-linejoin="round" d="M11.7381277,24.6131935 L27.568766,24.6131935"/>
    </g>
  </g>
</svg>
